<svg xmlns="http://www.w3.org/2000/svg" width="32" height="32" fill="none" viewBox="0 0 32 32">
    <path fill="#1B1D1F" fill-rule="evenodd" d="M9.4 4.067c1.751-1.75 4.125-2.734 6.6-2.734 2.476 0 4.85.984 6.6 2.734s2.734 4.124 2.734 6.6c0 4.47.956 7.246 1.837 8.861.442.811.873 1.343 1.172 1.66.15.158.268.262.34.322.035.03.058.047.069.055l.004.003c.477.328.689.929.52 1.485-.17.562-.688.947-1.276.947H4c-.587 0-1.105-.385-1.276-.947-.168-.556.043-1.157.521-1.485l.004-.003.07-.055c.07-.06.189-.165.338-.323.3-.316.73-.848 1.173-1.659.881-1.615 1.837-4.391 1.837-8.861 0-2.476.983-4.85 2.734-6.6zM3.26 21.559zm3.607-.226h18.269c-.102-.166-.204-.342-.305-.528-1.119-2.051-2.163-5.275-2.163-10.138 0-1.768-.702-3.464-1.953-4.714C19.465 4.703 17.77 4 16 4c-1.768 0-3.463.702-4.714 1.953-1.25 1.25-1.952 2.946-1.952 4.714 0 4.863-1.044 8.087-2.163 10.138-.102.186-.203.362-.305.528zM13.024 26.847c.637-.37 1.453-.153 1.822.484.117.202.286.37.488.486.203.117.432.178.666.178.233 0 .463-.061.665-.178.203-.116.37-.284.488-.486.37-.637 1.185-.854 1.822-.484s.854 1.185.485 1.822c-.352.606-.857 1.11-1.464 1.46-.607.349-1.296.533-1.996.533-.701 0-1.39-.184-1.997-.534-.607-.35-1.112-.853-1.463-1.459-.37-.637-.153-1.453.484-1.822z" clip-rule="evenodd"/>
</svg>
