<svg xmlns="http://www.w3.org/2000/svg" width="24" height="24" fill="none" viewBox="0 0 24 24">
    <path fill="#72787F" fill-rule="evenodd" d="M18.707 5.293c.39.39.39 1.024 0 1.414l-12 12c-.39.39-1.024.39-1.414 0-.39-.39-.39-1.024 0-1.414l12-12c.39-.39 1.024-.39 1.414 0z" clip-rule="evenodd"/>
    <path fill="#72787F" fill-rule="evenodd" d="M5.293 5.293c.39-.39 1.024-.39 1.414 0l12 12c.39.39.39 1.024 0 1.414-.39.39-1.024.39-1.414 0l-12-12c-.39-.39-.39-1.024 0-1.414z" clip-rule="evenodd"/>
</svg>
