<svg xmlns="http://www.w3.org/2000/svg" width="20" height="20" fill="none" viewBox="0 0 20 20">
    <path fill="#1B1D1F" fill-rule="evenodd" d="M2.501 11.667c.46 0 .834.373.834.833v3.333c0 .221.087.433.244.59.156.156.368.244.589.244h11.667c.22 0 .433-.088.589-.245.156-.156.244-.368.244-.589V12.5c0-.46.373-.833.833-.833.46 0 .834.373.834.833v3.333c0 .663-.264 1.3-.733 1.768-.468.469-1.104.732-1.767.732H4.168c-.663 0-1.299-.263-1.768-.732-.469-.469-.732-1.105-.732-1.768V12.5c0-.46.373-.833.833-.833z" clip-rule="evenodd"/>
    <path fill="#1B1D1F" fill-rule="evenodd" d="M5.244 7.744c.326-.325.853-.325 1.179 0L10 11.322l3.577-3.578c.326-.325.854-.325 1.179 0 .325.326.325.853 0 1.179l-4.167 4.166c-.325.326-.853.326-1.178 0L5.244 8.923c-.325-.326-.325-.853 0-1.179z" clip-rule="evenodd"/>
    <path fill="#1B1D1F" fill-rule="evenodd" d="M10.001 1.667c.46 0 .834.373.834.833v10c0 .46-.374.833-.834.833-.46 0-.833-.373-.833-.833v-10c0-.46.373-.833.833-.833z" clip-rule="evenodd"/>
</svg>
