<svg xmlns="http://www.w3.org/2000/svg" width="20" height="20" fill="none" viewBox="0 0 20 20">
    <path fill="#1B1D1F" fill-rule="evenodd" d="M4.168 5.833c-.221 0-.433.088-.59.244-.156.157-.243.369-.243.59v9.166c0 .221.087.433.244.59.156.156.368.244.589.244h9.167c.22 0 .433-.088.589-.245.156-.156.244-.368.244-.589v-5c0-.46.373-.833.833-.833.46 0 .834.373.834.833v5c0 .663-.264 1.3-.733 1.768-.468.469-1.104.732-1.767.732H4.168c-.663 0-1.299-.263-1.768-.732-.469-.469-.732-1.105-.732-1.768V6.667c0-.663.263-1.3.732-1.768.469-.469 1.105-.732 1.768-.732h5c.46 0 .833.373.833.833 0 .46-.373.833-.833.833h-5zM11.668 2.5c0-.46.373-.833.833-.833h5c.46 0 .834.373.834.833v5c0 .46-.373.833-.834.833-.46 0-.833-.373-.833-.833V3.333h-4.167c-.46 0-.833-.373-.833-.833z" clip-rule="evenodd"/>
    <path fill="#1B1D1F" fill-rule="evenodd" d="M18.09 1.91c.325.326.325.854 0 1.18l-9.167 9.166c-.326.325-.853.325-1.179 0-.325-.326-.325-.853 0-1.179l9.167-9.166c.325-.326.853-.326 1.178 0z" clip-rule="evenodd"/>
</svg>
