<svg xmlns="http://www.w3.org/2000/svg" width="16" height="16" fill="none" viewBox="0 0 16 16">
    <path fill="#fff" fill-rule="evenodd" d="M2.586 1.252C2.96.877 3.47.667 4 .667h5.333c.177 0 .347.07.472.195l4 4c.125.125.195.295.195.471v8c0 .53-.21 1.04-.586 1.415-.375.375-.884.585-1.414.585H4c-.53 0-1.04-.21-1.414-.585C2.21 14.373 2 13.864 2 13.332V2.667c0-.53.21-1.04.586-1.415zM4 2c-.177 0-.346.07-.471.195s-.196.295-.196.472v10.666c0 .177.07.347.196.472.125.125.294.195.471.195h8c.177 0 .346-.07.471-.195s.196-.295.196-.472V5.61L9.057 2H4z" clip-rule="evenodd"/>
    <path fill="#fff" fill-rule="evenodd" d="M9.335.667c.368 0 .666.298.666.666v3.334h3.334c.368 0 .666.298.666.666 0 .369-.298.667-.666.667h-4c-.369 0-.667-.298-.667-.667v-4c0-.368.298-.666.667-.666zM4.668 8.667c0-.369.298-.667.667-.667h5.333c.368 0 .667.298.667.667 0 .368-.299.666-.667.666H5.335c-.369 0-.667-.298-.667-.666zM4.668 11.333c0-.368.298-.666.667-.666h5.333c.368 0 .667.298.667.666 0 .368-.299.667-.667.667H5.335c-.369 0-.667-.299-.667-.667zM4.668 6c0-.368.298-.667.667-.667h1.333c.368 0 .667.299.667.667 0 .368-.299.667-.667.667H5.335c-.369 0-.667-.299-.667-.667z" clip-rule="evenodd"/>
</svg>
