<svg xmlns="http://www.w3.org/2000/svg" width="16" height="16" fill="none" viewBox="0 0 16 16">
    <path fill="#004DF0" fill-rule="evenodd" d="M2.668 3.333c-.365 0-.667.302-.667.667v8c0 .365.302.667.667.667h10.667c.365 0 .666-.302.666-.667V4c0-.365-.301-.667-.666-.667H2.668zM.668 4c0-1.102.898-2 2-2h10.667c1.101 0 2 .898 2 2v8c0 1.101-.899 2-2 2H2.668c-1.102 0-2-.899-2-2V4z" clip-rule="evenodd"/>
    <path fill="#004DF0" fill-rule="evenodd" d="M.789 3.618c.21-.302.626-.375.928-.164l6.284 4.399 6.285-4.4c.301-.21.717-.137.928.165.211.301.138.717-.164.928L8.384 9.213c-.23.16-.535.16-.765 0L.952 4.546C.651 4.335.577 3.92.79 3.618z" clip-rule="evenodd"/>
</svg>
