<svg xmlns="http://www.w3.org/2000/svg" width="116" height="40" fill="none" viewBox="0 0 116 40">
    <path fill="#29ABE2" d="M44.365 18.125c1.283-.451 2.4-.974 3.35-1.52.927-.547 1.711-1.118 2.33-1.688.617-.57 1.045-1.14 1.33-1.711.285-.57.428-1.093.428-1.592 0-.262-.119-.404-.357-.404h-7.295V8.05h8.198c.38 0 .713.142.998.403.286.285.618.642.975 1.093.309.404.523.76.689 1.07.166.309.238.57.238.832 0 1.069-.262 2.067-.76 3.018-.524.95-1.189 1.83-2.068 2.661-.856.808-1.854 1.545-2.995 2.186-1.14.642-2.352 1.189-3.612 1.64-.166.048-.285.095-.404.095-.118 0-.214-.024-.309-.095-.095-.071-.19-.19-.285-.38-.095-.166-.214-.428-.356-.737-.238-.523-.404-.927-.428-1.164-.095-.262.024-.428.333-.547z"/>
    <path fill="#222" d="M62.283 24.161c-.356-.736-.808-1.354-1.426-1.877-.594-.523-1.307-.95-2.115-1.26-.808-.309-1.663-.475-2.59-.475-.927 0-1.782.166-2.59.476-.808.308-1.497.736-2.115 1.259-.594.523-1.07 1.164-1.426 1.877-.357.737-.523 1.497-.523 2.33 0 .831.166 1.615.523 2.328.356.737.808 1.355 1.426 1.878.594.522 1.307.95 2.115 1.259.808.309 1.663.475 2.59.475.927 0 1.782-.166 2.59-.475.808-.309 1.498-.737 2.115-1.26.595-.522 1.07-1.164 1.426-1.877.357-.736.523-1.497.523-2.329 0-.831-.166-1.616-.523-2.329zm-3.303 3.446c-.143.357-.333.69-.594.95-.262.286-.57.5-.95.666-.38.167-.785.262-1.284.262-.475 0-.903-.095-1.283-.262-.38-.166-.69-.38-.95-.665-.262-.285-.452-.594-.595-.95-.142-.357-.214-.738-.214-1.118 0-.38.072-.76.214-1.117.143-.356.333-.689.594-.95.262-.285.57-.5.95-.666.381-.166.785-.261 1.284-.261.475 0 .903.095 1.283.261.38.167.69.38.95.666.262.285.452.594.595.95.143.357.214.737.214 1.117s-.071.76-.214 1.117zM63.376 20.074c0 .309-.166.546-.475.641-.309.12-.76.167-1.33.167-.571 0-.999-.048-1.331-.167-.31-.118-.476-.332-.476-.641v-2.068h-4.729v-2.923h4.73v-2.519h-3.637V9.641h3.66v-2.21H63.4v12.643h-.024z"/>
    <path fill="#754C24" d="M67.13 9.546v11.692c0 .31.12.618.357.975.238.356.5.665.785.927.308.308.641.57.998.831.38.262.713.38 1.045.38h5.038c.642 0 1.093-.166 1.402-.522.31-.357.452-.856.452-1.498V9.546H67.13zm6.631 11.716h-2.638c-.309 0-.475-.166-.475-.499v-8.127h3.113v8.626z"/>
    <path fill="#222" d="M88.424 29.603c0 .31-.166.5-.475.595-.31.095-.737.142-1.307.142-.547 0-.975-.047-1.284-.142-.309-.096-.475-.286-.475-.595V18.292H82.84v11.05c0 .285-.142.475-.427.547-.286.095-.713.142-1.284.142-.546 0-.974-.047-1.283-.142-.309-.095-.451-.286-.451-.547V7.954h3.445v7.224h2.044V7.716H88.4v21.887h.024z"/>
    <path fill="#F7931E" d="M104.75 13.895c-.356-.855-.832-1.568-1.426-2.186-.618-.618-1.331-1.093-2.186-1.426-.856-.333-1.782-.499-2.78-.499-.999 0-1.925.166-2.781.499-.855.333-1.568.808-2.186 1.426-.618.618-1.093 1.33-1.426 2.186-.333.856-.5 1.806-.5 2.828 0 1.046.167 1.996.5 2.828.333.856.808 1.569 1.426 2.186.618.618 1.33 1.094 2.186 1.426.856.333 1.782.5 2.78.5.999 0 1.925-.167 2.781-.5.855-.332 1.568-.808 2.186-1.426.618-.617 1.093-1.33 1.426-2.186.357-.855.523-1.806.523-2.828 0-1.045-.166-1.996-.523-2.828zm-3.992 5.68c-.618.689-1.426 1.046-2.4 1.046-.975 0-1.783-.357-2.4-1.046-.619-.69-.951-1.64-.951-2.852 0-1.188.309-2.139.95-2.828.618-.713 1.426-1.07 2.4-1.07.975 0 1.783.357 2.401 1.07.618.713.95 1.664.95 2.828-.024 1.212-.332 2.163-.95 2.852z"/>
    <path fill="#222" d="M115.135 18.054v3.113h-4.016v8.46c0 .31-.167.5-.476.618-.309.095-.784.166-1.378.166-.57 0-.998-.047-1.331-.142-.309-.095-.475-.285-.475-.594V7.716h3.66v3.97h4.016v3.112h-4.016v3.256h4.016zM13.11 40c-.334 0-.668-.12-.93-.382-.526-.526-.526-1.362 0-1.863l2.65-2.652H7.188c-.74 0-1.314-.597-1.314-1.314V17.713h-3.56c-.549 0-1.05-.335-1.242-.86-.19-.526-.047-1.099.383-1.457L19.154.322c.502-.43 1.219-.43 1.72 0l17.797 15.17c.43.357.573.93.382 1.456-.191.526-.693.86-1.242.86h-3.512v15.957c0 .74-.597 1.314-1.314 1.314h-6.187c-.74 0-1.313-.597-1.313-1.314 0-.716.597-1.313 1.313-1.313h4.874V16.495c0-.741.597-1.314 1.313-1.314h1.242L20.014 3.07 5.921 15.06h1.266c.74 0 1.313.597 1.313 1.314v16.077h9.508c.525 0 1.027.31 1.218.812.215.501.096 1.05-.287 1.433l-4.92 4.92c-.24.264-.574.383-.908.383z"/>
    <path fill="#8C6239" d="M26.799 22.37h-4.97c-.43 0-.764-.334-.764-.764v-4.992c0-.43.335-.764.765-.764h4.969c.43 0 .764.334.764.764v4.969c0 .43-.334.788-.764.788z"/>
    <path fill="#F7931E" d="M24.29 30.588c1.781 0 3.225-1.444 3.225-3.225 0-1.78-1.444-3.224-3.225-3.224-1.78 0-3.225 1.443-3.225 3.224 0 1.781 1.444 3.225 3.225 3.225z"/>
    <path fill="#29ABE2" d="M12.226 16.948l5.232 5.232c.406.406 1.099.12 1.099-.454v-5.232c0-.358-.287-.644-.645-.644H12.68c-.573 0-.86.692-.454 1.098z"/>
</svg>
