<svg xmlns="http://www.w3.org/2000/svg" width="20" height="20" fill="none" viewBox="0 0 20 20">
    <path fill="#fff" fill-rule="evenodd" d="M6.253.943c.242-.138.537-.146.786-.022l6.268 3.134L18.753.943c.258-.147.575-.146.832.003s.415.424.415.72V15c0 .3-.16.575-.42.723l-5.833 3.334c-.242.138-.537.146-.786.022l-6.268-3.134-5.446 3.112c-.258.147-.575.146-.832-.003S0 18.63 0 18.334V5c0-.299.16-.575.42-.724L6.253.943zm.44 1.668L1.667 5.484v11.413l4.586-2.62c.242-.139.537-.147.786-.022l6.268 3.133 5.026-2.872V3.103l-4.586 2.62c-.242.139-.537.147-.786.022L6.693 2.611z" clip-rule="evenodd"/>
    <path fill="#fff" fill-rule="evenodd" d="M6.665.833c.46 0 .834.373.834.834V15c0 .46-.373.833-.834.833-.46 0-.833-.373-.833-.833V1.667c0-.46.373-.834.833-.834zM13.333 4.167c.46 0 .834.373.834.833v13.333c0 .46-.373.834-.834.834-.46 0-.833-.373-.833-.834V5c0-.46.373-.833.833-.833z" clip-rule="evenodd"/>
</svg>
