<svg xmlns="http://www.w3.org/2000/svg" width="12" height="12" fill="none" viewBox="0 0 12 12">
    <path fill="#72787F" fill-rule="evenodd" d="M6 1c-1.06 0-2.078.421-2.828 1.172C2.422 2.922 2 3.939 2 5c0 1.55 1.008 3.052 2.113 4.219.542.572 1.086 1.04 1.495 1.367.153.12.286.222.392.3.106-.078.24-.18.392-.3.409-.326.953-.795 1.495-1.367C8.992 8.052 10 6.549 10 5c0-1.06-.421-2.078-1.172-2.828C8.078 1.422 7.061 1 6 1zm0 10.5l-.278.416-.001-.001-.003-.002-.012-.008-.041-.028c-.036-.025-.087-.06-.151-.107-.129-.093-.31-.229-.529-.402-.434-.346-1.015-.847-1.598-1.462C2.242 8.698 1 6.951 1 5c0-1.326.527-2.598 1.464-3.536C3.402.527 4.674 0 6 0s2.598.527 3.536 1.464C10.473 2.402 11 3.674 11 5c0 1.951-1.242 3.698-2.387 4.906-.583.615-1.164 1.116-1.598 1.462-.218.173-.4.309-.529.402l-.15.107-.042.028-.012.008-.003.002h-.001L6 11.5zm0 0l.277.416c-.168.112-.387.112-.555 0L6 11.5z" clip-rule="evenodd"/>
    <path fill="#72787F" fill-rule="evenodd" d="M6 4c-.552 0-1 .448-1 1s.448 1 1 1 1-.448 1-1-.448-1-1-1zM4 5c0-1.105.895-2 2-2s2 .895 2 2-.895 2-2 2-2-.895-2-2z" clip-rule="evenodd"/>
</svg>
