<svg xmlns="http://www.w3.org/2000/svg" width="85" height="25" fill="none" viewBox="0 0 85 25">
    <path fill="#9EA4AA" d="M.442 20.187l2.201 2.831V20.17h.485v3.63h-.45L.476 20.96v2.85H0v-3.632h.442v.009zM3.51 22.517c0-.782.545-1.36 1.301-1.36.757 0 1.3.578 1.3 1.36 0 .06 0 .128-.008.188H3.978c.051.442.374.773.833.773.357 0 .63-.161.723-.374h.476c-.145.45-.604.774-1.199.774-.756 0-1.3-.578-1.3-1.36zm1.301-.96c-.467 0-.782.323-.833.773h1.675c-.06-.45-.374-.773-.842-.773z"/>
    <path fill="#9EA4AA" d="M6.035 21.225h.57l.74.96.756-.96h.535l-1.003 1.267 1.063 1.326h-.57l-.79-1.003-.79 1.003H6.01L7.055 22.5l-1.02-1.275zM10.319 21.633H9.74v2.185h-.468v-2.185h-.578v-.417h.578v-.79h.468v.79h.578v.417zM11.467 21.998c0-1.097.79-1.896 1.904-1.896.926 0 1.615.535 1.81 1.233h-.518c-.153-.46-.663-.8-1.284-.8-.841 0-1.436.613-1.436 1.463 0 .859.595 1.471 1.445 1.471.74 0 1.3-.493 1.351-1.148h-1.445v-.417h1.955v.162c0 1.072-.816 1.82-1.878 1.82-1.105.017-1.904-.791-1.904-1.888zM15.47 22.517c0-.782.544-1.36 1.3-1.36.757 0 1.3.578 1.3 1.36 0 .06 0 .128-.008.188h-2.125c.051.442.374.773.833.773.357 0 .63-.161.723-.374h.476c-.145.45-.604.774-1.199.774-.756 0-1.3-.578-1.3-1.36zm1.3-.96c-.467 0-.782.323-.833.773h1.675c-.06-.45-.374-.773-.842-.773zM18.895 21.225v.391c.11-.187.4-.459.876-.459.612 0 1.045.442 1.045 1.14v1.521h-.467v-1.437c0-.527-.255-.807-.672-.807-.45 0-.782.425-.782.91v1.343h-.467v-2.594h.467v-.008zM21.114 22.517c0-.782.544-1.36 1.3-1.36.757 0 1.301.578 1.301 1.36 0 .06 0 .128-.008.188h-2.125c.05.442.374.773.833.773.357 0 .629-.161.722-.374h.476c-.144.45-.603.774-1.198.774-.748 0-1.3-.578-1.3-1.36zm1.31-.96c-.468 0-.783.323-.834.773h1.675c-.06-.45-.383-.773-.842-.773zM24.548 21.225v.4c.11-.196.425-.46.935-.46.161 0 .263.018.357.043v.443c-.102-.043-.23-.077-.383-.077-.527 0-.9.425-.9.901v1.344h-.468v-2.594h.459zM25.798 22.517c0-.773.552-1.36 1.283-1.36.468 0 .79.23.918.45v-.382h.468v2.593h-.468v-.382c-.127.221-.45.45-.918.45-.73-.008-1.283-.586-1.283-1.369zm2.21 0c0-.535-.366-.943-.893-.943-.518 0-.867.408-.867.943 0 .536.349.944.867.944.536.009.893-.4.893-.944zM30.336 21.633h-.578v2.185h-.467v-2.185h-.578v-.417h.578v-.79h.467v.79h.578v.417zM31.128 20.331c0 .18-.128.307-.315.307-.178 0-.306-.128-.306-.307 0-.178.127-.306.306-.306.187 0 .315.136.315.306zm-.545 3.487v-2.602h.468v2.602h-.468zM34.077 22.517c0 .783-.561 1.361-1.326 1.361-.774 0-1.326-.578-1.326-1.36 0-.783.56-1.361 1.326-1.361.765 0 1.326.587 1.326 1.36zm-2.193 0c0 .536.357.944.867.944s.867-.408.867-.944c0-.535-.357-.943-.867-.943-.519 0-.867.408-.867.943zM34.91 21.225v.391c.11-.187.4-.459.875-.459.612 0 1.046.442 1.046 1.14v1.521h-.468v-1.437c0-.527-.255-.807-.671-.807-.45 0-.782.425-.782.91v1.343h-.468v-2.594h.468v-.008zM38.812 23.818h-.477v-3.631h.477v3.631zM39.805 21.225v.391c.11-.187.4-.459.876-.459.612 0 1.045.442 1.045 1.14v1.521h-.467v-1.437c0-.527-.255-.807-.672-.807-.45 0-.782.425-.782.91v1.343h-.467v-2.594h.467v-.008zM43.477 21.633h-.578v2.185h-.468v-2.185h-.578v-.417h.578v-.79h.468v.79h.578v.417zM43.512 22.517c0-.782.544-1.36 1.3-1.36.757 0 1.3.578 1.3 1.36 0 .06 0 .128-.008.188H43.98c.051.442.374.773.833.773.357 0 .63-.161.723-.374h.476c-.145.45-.604.774-1.199.774-.756 0-1.3-.578-1.3-1.36zm1.3-.96c-.467 0-.782.323-.833.773h1.666c-.05-.45-.365-.773-.833-.773zM46.47 23.818v-3.75h.468v3.75h-.468zM47.447 23.818v-3.75h.468v3.75h-.468zM48.961 20.331c0 .18-.128.307-.315.307-.178 0-.306-.128-.306-.307 0-.178.127-.306.306-.306.187 0 .315.136.315.306zm-.545 3.487v-2.602h.468v2.602h-.468zM49.436 24.065h.476c.05.28.289.519.756.519.468 0 .8-.315.8-.825v-.357c-.128.221-.451.45-.919.45-.73 0-1.283-.578-1.283-1.334 0-.766.552-1.344 1.283-1.344.468 0 .79.23.918.45v-.382h.468v2.534c0 .714-.519 1.225-1.267 1.225-.748-.017-1.139-.451-1.232-.936zm2.031-1.556c0-.527-.365-.935-.892-.935-.519 0-.867.4-.867.935 0 .527.348.936.867.936.535 0 .892-.409.892-.936zM52.3 22.517c0-.782.545-1.36 1.301-1.36.757 0 1.3.578 1.3 1.36 0 .06 0 .128-.008.188h-2.125c.051.442.374.773.833.773.357 0 .63-.161.723-.374h.476c-.145.45-.604.774-1.199.774-.756 0-1.3-.578-1.3-1.36zm1.301-.96c-.467 0-.782.323-.833.773h1.675c-.06-.45-.374-.773-.842-.773zM55.726 21.225v.391c.11-.187.4-.459.876-.459.612 0 1.045.442 1.045 1.14v1.521h-.467v-1.437c0-.527-.255-.807-.672-.807-.45 0-.782.425-.782.91v1.343h-.467v-2.594h.467v-.008zM59.398 21.633h-.578v2.185h-.468v-2.185h-.578v-.417h.578v-.79h.468v.79h.578v.417zM62.203 20.187c.799 0 1.258.383 1.258 1.003 0 .34-.238.672-.561.749.416.085.73.4.73.85 0 .63-.475 1.029-1.291 1.029h-1.615v-3.631h1.479zm.773 1.003c0-.382-.289-.595-.79-.595h-.995v1.19h.995c.501 0 .79-.212.79-.595zm.17 1.6c0-.4-.314-.613-.824-.613h-1.13V23.4h1.13c.51 0 .824-.212.824-.612zM63.988 23.818v-3.75h.468v3.75h-.468zM67.481 22.517c0 .783-.56 1.361-1.326 1.361-.773 0-1.326-.578-1.326-1.36 0-.783.561-1.361 1.326-1.361s1.326.587 1.326 1.36zm-2.193 0c0 .536.357.944.867.944s.867-.408.867-.944c0-.535-.357-.943-.867-.943-.518 0-.867.408-.867.943zM69.045 23.878c-.773 0-1.334-.578-1.334-1.36 0-.783.56-1.361 1.326-1.361.612 0 1.096.391 1.215.935h-.476c-.102-.306-.374-.518-.748-.518-.518 0-.867.408-.867.943 0 .536.349.944.867.944.366 0 .646-.22.757-.527h.476c-.136.57-.612.944-1.216.944zM71.561 22.627l-.51.536v.646h-.467v-3.741h.468v2.542l1.291-1.386h.553l-1.037 1.097 1.139 1.505h-.553l-.883-1.199z"/>
    <path fill="#9EA4AA" d="M74.197 23.878c-.774 0-1.335-.578-1.335-1.36 0-.783.561-1.361 1.326-1.361.612 0 1.097.391 1.216.935h-.476c-.102-.306-.374-.518-.748-.518-.519 0-.867.408-.867.943 0 .536.348.944.867.944.365 0 .646-.22.756-.527h.476c-.136.57-.612.944-1.215.944zM76.228 20.068v1.547c.11-.187.4-.459.876-.459.612 0 1.045.442 1.045 1.14v1.522h-.467V22.38c0-.528-.255-.808-.672-.808-.45 0-.782.425-.782.91v1.343h-.467v-3.758h.467zM78.464 22.517c0-.773.552-1.36 1.283-1.36.468 0 .79.23.918.45v-.382h.468v2.593h-.468v-.382c-.127.221-.45.45-.918.45-.74-.008-1.283-.586-1.283-1.369zm2.21 0c0-.535-.366-.943-.893-.943-.518 0-.867.408-.867.943 0 .536.349.944.867.944.527.009.893-.4.893-.944zM82.179 20.331c0 .18-.128.307-.315.307-.179 0-.306-.128-.306-.307 0-.178.127-.306.306-.306.187 0 .315.136.315.306zm-.545 3.487v-2.602h.468v2.602h-.468zM83.079 21.225v.391c.11-.187.4-.459.875-.459.612 0 1.046.442 1.046 1.14v1.521h-.468v-1.437c0-.527-.255-.807-.671-.807-.45 0-.782.425-.782.91v1.343h-.468v-2.594h.468v-.008z"/>
    <path fill="#fff" d="M69.267 0v17.075H65.45V0h3.817zM0 .094h3.17l8.475 10.212V0h3.791v17.075h-3.17L3.79 6.658v10.425H0V.093zM31.187 0H17.009v4.107h14.178V0zM31.187 12.967H17.009v4.108h14.178v-4.107zM82.212 8.13c1.173-.443 1.989-1.82 1.989-3.036C84.2 1.973 82.067 0 78.276 0h-4.845l-2.567 3.546v13.537h8.041c3.834 0 6.095-2.015 6.095-5.178 0-1.658-1.156-3.249-2.788-3.776zm-7.54-4.882h3.434c1.445 0 2.287.647 2.287 1.846s-.842 1.82-2.287 1.82h-3.434V3.247zm4.063 10.578h-4.063V9.974h4.063c1.505 0 2.448.672 2.448 1.93 0 1.26-.935 1.922-2.448 1.922zM49.461 0h-4.93L41.54 4.124l2.465 3.41L49.461 0zM62.398 0h-11.22l-2.975 4.107h5.466v12.968h4.199V4.107h4.53V0zM49.461 17.075l-5.457-7.526-2.465 3.402 2.992 4.124h4.93zM37.094 0h-4.93l6.188 8.537-6.188 8.538h4.93l6.188-8.538L37.094 0z"/>
    <path fill="#004DF0" d="M34.23 6.403H17.009v4.277H34.23l1.555-2.143-1.555-2.134z"/>
</svg>
