<svg xmlns="http://www.w3.org/2000/svg" width="10" height="10" fill="none" viewBox="0 0 10 10">
    <g fill="#1B1D1F" fill-rule="evenodd" clip-path="url(#clip0)" clip-rule="evenodd">
        <path d="M0 5.833c0-.23.187-.416.417-.416h2.5c.23 0 .416.186.416.416 0 .23-.186.417-.416.417H.833v2.083c0 .23-.186.417-.416.417-.23 0-.417-.187-.417-.417v-2.5z"/>
        <path d="M.113 5.548c.158-.168.421-.176.589-.018l1.933 1.816.01.01c.398.398.89.689 1.431.845.541.157 1.113.173 1.662.05.55-.125 1.058-.386 1.479-.76.42-.375.74-.85.928-1.38.076-.217.315-.33.532-.254.216.077.33.315.253.532-.235.664-.634 1.257-1.16 1.724-.526.468-1.162.795-1.848.95-.687.155-1.401.134-2.077-.061-.674-.195-1.288-.557-1.785-1.053L.131 6.137c-.167-.158-.176-.421-.018-.589zM10 4.166c0 .23-.187.416-.417.416h-2.5c-.23 0-.416-.186-.416-.416 0-.23.186-.417.416-.417h2.084V1.666c0-.23.186-.417.416-.417.23 0 .417.187.417.417v2.5z"/>
        <path d="M9.887 4.451c-.158.168-.421.176-.589.018L7.365 2.653l-.01-.01c-.398-.398-.89-.689-1.431-.845-.541-.157-1.113-.173-1.662-.05-.55.125-1.058.386-1.479.76-.42.375-.74.85-.928 1.38-.076.217-.315.33-.532.254-.216-.077-.33-.315-.253-.532.234-.664.634-1.257 1.16-1.724.526-.468 1.162-.795 1.848-.95C4.765.781 5.48.802 6.155.997c.674.195 1.288.557 1.785 1.053l1.929 1.812c.167.158.176.421.018.589z"/>
    </g>
    <defs>
        <clipPath id="clip0">
            <path fill="#fff" d="M0 0H10V10H0z"/>
        </clipPath>
    </defs>
</svg>
