<svg xmlns="http://www.w3.org/2000/svg" width="32" height="32" fill="none" viewBox="0 0 32 32">
    <path fill="#1B1D1F" fill-rule="evenodd" d="M14.667 5.333c-5.155 0-9.333 4.179-9.333 9.334C5.334 19.82 9.512 24 14.667 24S24 19.821 24 14.667c0-5.155-4.178-9.334-9.333-9.334zm-12 9.334c0-6.628 5.373-12 12-12s12 5.372 12 12c0 6.627-5.373 12-12 12s-12-5.373-12-12z" clip-rule="evenodd"/>
    <path fill="#1B1D1F" fill-rule="evenodd" d="M21.257 21.257c.52-.52 1.365-.52 1.885 0l5.8 5.8c.521.52.521 1.365 0 1.886-.52.52-1.365.52-1.885 0l-5.8-5.8c-.521-.52-.521-1.365 0-1.886z" clip-rule="evenodd"/>
</svg>
