<svg xmlns="http://www.w3.org/2000/svg" width="16" height="16" fill="none" viewBox="0 0 16 16">
    <path fill="#fff" fill-rule="evenodd" d="M11.999 2c-.737 0-1.334.597-1.334 1.333 0 .737.597 1.334 1.334 1.334.736 0 1.333-.597 1.333-1.334 0-.736-.597-1.333-1.333-1.333zM9.332 3.333c0-1.472 1.194-2.666 2.667-2.666 1.473 0 2.666 1.194 2.666 2.666C14.665 4.806 13.472 6 12 6c-1.473 0-2.667-1.194-2.667-2.667zM3.999 6.667c-.737 0-1.334.597-1.334 1.333S3.262 9.333 4 9.333c.736 0 1.333-.597 1.333-1.333s-.597-1.333-1.333-1.333zM1.332 8c0-1.473 1.194-2.667 2.667-2.667C5.47 5.333 6.665 6.527 6.665 8c0 1.473-1.194 2.667-2.666 2.667-1.473 0-2.667-1.194-2.667-2.667zM11.999 11.333c-.737 0-1.334.597-1.334 1.334 0 .736.597 1.333 1.334 1.333.736 0 1.333-.597 1.333-1.333 0-.737-.597-1.334-1.333-1.334zm-2.667 1.334c0-1.473 1.194-2.667 2.667-2.667 1.473 0 2.666 1.194 2.666 2.667 0 1.472-1.193 2.666-2.666 2.666-1.473 0-2.667-1.194-2.667-2.666z" clip-rule="evenodd"/>
    <path fill="#fff" fill-rule="evenodd" d="M5.15 8.671c.185-.318.593-.426.911-.24l4.553 2.653c.318.185.426.594.24.912-.185.318-.593.425-.91.24L5.389 9.583c-.318-.186-.426-.594-.24-.912zM10.848 4.004c.185.318.078.726-.24.912L6.061 7.569c-.318.186-.726.078-.911-.24-.186-.318-.079-.726.24-.911l4.546-2.654c.318-.185.726-.078.912.24z" clip-rule="evenodd"/>
</svg>
