<svg xmlns="http://www.w3.org/2000/svg" width="16" height="16" fill="none" viewBox="0 0 16 16">
    <path fill="#fff" fill-rule="evenodd" d="M6.431 2.285c.642-1.3 2.497-1.3 3.139 0l1.221 2.476c.037.073.107.124.189.136l2.732.397c1.435.209 2.008 1.973.97 2.985l-1.977 1.927c-.06.058-.086.14-.072.221l.466 2.721c.246 1.43-1.255 2.52-2.539 1.845L8.117 13.71c-.073-.039-.16-.039-.233 0l-2.443 1.284c-1.284.675-2.785-.415-2.54-1.845l.467-2.72c.014-.082-.013-.164-.072-.222L1.32 8.28C.281 7.267.854 5.503 2.29 5.294l2.732-.397c.082-.012.152-.063.188-.136l1.222-2.476zm1.794.664c-.092-.186-.357-.186-.449 0L6.555 5.424c-.255.517-.748.875-1.318.958l-2.732.397c-.205.03-.287.281-.139.426l1.977 1.927c.413.402.6.981.504 1.549l-.467 2.72c-.035.205.18.36.363.264l2.443-1.284c.51-.268 1.119-.268 1.629 0l2.443 1.284c.184.097.398-.059.363-.263l-.467-2.721c-.097-.568.091-1.147.504-1.549l1.976-1.927c.149-.145.067-.397-.138-.426l-2.732-.397c-.57-.083-1.063-.441-1.318-.958L8.225 2.95z" clip-rule="evenodd"/>
</svg>
